HIERARCHY
ROOT Hips
{
	OFFSET	0.00	0.00	0.00
	CHANNELS 6 Xposition Yposition Zposition Zrotation Xrotation Yrotation
	JOINT LeftUpLeg
	{
		OFFSET	 0.126116	-0.014019	-0.065224
		CHANNELS 3 Zrotation Xrotation Yrotation
		JOINT LeftLeg
		{
			OFFSET	 0.000000	 0.000000	 0.569914
			CHANNELS 3 Zrotation Xrotation Yrotation
			JOINT LeftFoot
			{
				OFFSET	 0.000000	 0.000000	 0.544423
				CHANNELS 3 Zrotation Xrotation Yrotation
				JOINT LeftToeBase
				{
					OFFSET	 0.000000	 0.000000	 0.207117
					CHANNELS 3 Zrotation Xrotation Yrotation
					End Site
					{
						OFFSET	 0.000000	 0.000000	 0.207117
					}
				}
			}
		}
	}
	JOINT RightUpLeg
	{
		OFFSET	-0.124023	-0.008373	-0.065224
		CHANNELS 3 Zrotation Xrotation Yrotation
		JOINT RightLeg
		{
			OFFSET	 0.000000	 0.000000	 0.570047
			CHANNELS 3 Zrotation Xrotation Yrotation
			JOINT RightFoot
			{
				OFFSET	 0.000000	 0.000000	 0.544354
				CHANNELS 3 Zrotation Xrotation Yrotation
				JOINT RightToeBase
				{
					OFFSET	 0.000000	 0.000000	 0.207540
					CHANNELS 3 Zrotation Xrotation Yrotation
					End Site
					{
						OFFSET	 0.000000	 0.000000	 0.207540
					}
				}
			}
		}
	}
	JOINT Spine
	{
		OFFSET	 0.000184	-0.007763	 0.117403
		CHANNELS 3 Zrotation Xrotation Yrotation
		JOINT Spine1
		{
			OFFSET	 0.000000	 0.000000	 0.137269
			CHANNELS 3 Zrotation Xrotation Yrotation
			JOINT Spine2
			{
				OFFSET	 0.000000	 0.000000	 0.156879
				CHANNELS 3 Zrotation Xrotation Yrotation
				JOINT LeftShoulder
				{
					OFFSET	 0.080501	-0.002496	 0.160144
					CHANNELS 3 Zrotation Xrotation Yrotation
					JOINT LeftArm
					{
						OFFSET	 0.000000	 0.000000	 0.164363
						CHANNELS 3 Zrotation Xrotation Yrotation
						JOINT LeftForeArm
						{
							OFFSET	 0.000000	 0.000000	 0.364576
							CHANNELS 3 Zrotation Xrotation Yrotation
							JOINT LeftHand
							{
								OFFSET	 0.000000	 0.000000	 0.360812
								CHANNELS 3 Zrotation Xrotation Yrotation
								JOINT LeftHandIndex1
								{
									OFFSET	 0.000000	 0.000000	 0.086006
									CHANNELS 3 Zrotation Xrotation Yrotation
									JOINT LeftHandIndex2
									{
										OFFSET	 0.000000	 0.000000	 0.047237
										CHANNELS 3 Zrotation Xrotation Yrotation
										JOINT LeftHandIndex3
										{
											OFFSET	-0.004284	-0.000551	 0.038165
											CHANNELS 3 Zrotation Xrotation Yrotation
											End Site
											{
												OFFSET	-0.004284	-0.000551	 0.038165
											}
										}
									}
								}
							}
						}
					}
				}
				JOINT Neck
				{
					OFFSET	 0.000000	 0.000000	 0.176489
					CHANNELS 3 Zrotation Xrotation Yrotation
					JOINT Head
					{
						OFFSET	 0.000000	-0.001747	 0.077940
						CHANNELS 3 Zrotation Xrotation Yrotation
						End Site
						{
							OFFSET	 0.000000	-0.001747	 0.077940
						}
					}
				}
				JOINT RightShoulder
				{
					OFFSET	-0.080363	 0.000306	 0.159706
					CHANNELS 3 Zrotation Xrotation Yrotation
					JOINT RightArm
					{
						OFFSET	 0.000000	 0.000000	 0.164196
						CHANNELS 3 Zrotation Xrotation Yrotation
						JOINT RightForeArm
						{
							OFFSET	 0.000000	 0.000000	 0.365611
							CHANNELS 3 Zrotation Xrotation Yrotation
							JOINT RightHand
							{
								OFFSET	 0.000000	 0.000000	 0.360648
								CHANNELS 3 Zrotation Xrotation Yrotation
								JOINT RightHandIndex1
								{
									OFFSET	 0.000000	 0.000000	 0.069977
									CHANNELS 3 Zrotation Xrotation Yrotation
									JOINT RightHandIndex2
									{
										OFFSET	 0.000000	 0.000000	 0.052305
										CHANNELS 3 Zrotation Xrotation Yrotation
										JOINT RightHandIndex3
										{
											OFFSET	 0.009002	-0.000782	 0.042196
											CHANNELS 3 Zrotation Xrotation Yrotation
											End Site
											{
												OFFSET	 0.009002	-0.000782	 0.042196
											}
										}
									}
								}
							}
						}
					}
				}
			}
		}
	}
}
MOTION
Frames:    10
Frame Time: 0.03333334
-0.461458	-0.032691	 1.275414	 179.224700	-1.172044	 4.190457	 6.770287	-3.033412	 174.404900	-1.038629	-16.024020	-0.441785	-25.198320	 72.894970	 9.927395	-2.385833	 28.452760	 0.000004	 14.520230	 3.954558	 176.534700	-1.318229	-0.513817	-0.025500	 23.258540	 64.241420	-6.242910	 2.384659	 28.388700	-0.000001	-12.228830	 6.082745	-4.596397	-3.340932	 2.048822	-16.302630	 14.747770	 6.643969	 25.413090	-91.776150	 78.527400	 180.000000	-48.211880	-9.354249	-22.016510	 3.792459	-0.049302	-0.495899	-1.945991	-19.182490	-3.148860	-4.130319	 21.525730	 0.991547	-5.167930	 0.731704	 3.519349	-1.378229	 35.397820	-2.634230	-1.410979	-1.496933	 0.695229	-6.807206	-19.613930	-5.628813	 89.782100	 78.203830	 180.000000	-22.581810	-4.960742	 4.517648	-14.852980	-0.075208	 0.494592	 23.141980	-1.717697	 111.683600	 5.716227	 19.173190	-3.685159	 5.027444	 0.246877	-9.377972	-2.350882	 35.473990	 5.254307
-0.461777	-0.032685	 1.275518	 179.226500	-1.561291	 4.418693	 10.261920	-3.089087	 173.823000	-2.645628	-16.167500	-0.893852	-20.579000	 73.152850	 6.542583	-2.385833	 28.452760	 0.000004	 14.967470	 4.275871	 176.204500	-0.382620	-0.513420	-0.017079	 20.376470	 64.084790	-4.187246	 2.384659	 28.388700	-0.000001	-11.885650	 6.519300	-5.132666	-3.402153	 2.933058	-15.945400	 15.043310	 4.967751	 25.819350	-91.776120	 78.527360	 180.000000	-54.957070	-6.424363	-23.146670	 3.237045	-0.044636	-0.500768	-1.492874	-20.265020	-2.767929	-4.130319	 21.525730	 0.991547	-5.167930	 0.731704	 3.519349	-1.378229	 35.397820	-2.634230	-1.712817	-1.019066	 0.875314	-7.247212	-21.630270	-6.823627	 89.782070	 78.203820	-180.000000	-26.585820	-4.900140	 4.341012	-15.555810	-0.081115	 0.496736	 23.690220	 1.713583	 122.442500	 5.716227	 19.173190	-3.685159	 5.027444	 0.246877	-9.377972	-2.350882	 35.473990	 5.254307
-0.462782	-0.032700	 1.275810	 179.276700	-2.626962	 5.241291	 20.261430	-3.983931	 171.888800	-7.349282	-17.206340	-2.353755	-4.676262	 74.009250	-6.035718	-2.385833	 28.452760	 0.000004	 15.943280	 5.118491	 175.173000	 2.246124	-0.514397	 0.006494	 9.972703	 63.337940	 4.183282	 2.384659	 28.388700	-0.000001	-10.922220	 7.700351	-7.000163	-3.787955	 5.668137	-14.831140	 16.089850	-0.110358	 27.117900	-91.776280	 78.527420	-179.999900	-77.730700	 4.747398	-24.024430	 1.605831	-0.031222	-0.538118	-0.534790	-22.381650	-1.897371	-4.130319	 21.525730	 0.991547	-5.167930	 0.731704	 3.519349	-1.378229	 35.397820	-2.634230	-2.661605	 0.458785	 1.531132	-8.976184	-27.704110	-10.890720	 89.782140	 78.203870	 180.000000	-39.586560	-4.800689	 4.366556	-17.688110	-0.100890	 0.528965	 25.124580	 11.318260	 156.872800	 5.716227	 19.173190	-3.685159	 5.027444	 0.246877	-9.377972	-2.350882	 35.473990	 5.254307
-0.463207	-0.032805	 1.275549	 179.399700	-2.712031	 5.818260	 22.866060	-5.462455	 171.077900	-8.752029	-19.268400	-3.097723	-3.083750	 74.804860	-6.520669	-2.385833	 28.452760	 0.000004	 15.271640	 3.205889	 174.895400	 2.957570	-4.516524	 0.113013	 7.524494	 64.777370	 6.043249	 2.384659	 28.388700	-0.000001	-10.931280	 7.833385	-7.961183	-4.015352	 6.596274	-14.672950	 16.408420	-1.615888	 27.708790	-91.776290	 78.527400	-179.999900	-82.811120	 8.650279	-16.579600	 0.776237	-0.698926	-14.272420	-1.135152	-21.563060	-2.220976	-4.130319	 21.525730	 0.991547	-5.167930	 0.731704	 3.519349	-1.378229	 35.397820	-2.634230	-2.976392	 0.943580	 1.906733	-9.769799	-29.425600	-12.486740	 89.782110	 78.203890	 180.000000	-44.400630	-6.123366	-4.435131	-17.210400	-4.309193	 20.933840	 28.029530	 8.259702	 156.405400	 5.716227	 19.173190	-3.685159	 5.027444	 0.246877	-9.377972	-2.350882	 35.473990	 5.254307
-0.463705	-0.033072	 1.274597	 179.618100	-2.571878	 6.181099	 23.816990	-7.468638	 170.685000	-9.752188	-22.880060	-4.047099	-3.899283	 76.770040	-5.045518	-2.385833	 28.452760	 0.000004	 14.183320	-0.196990	 175.215500	 3.472902	-11.423230	 0.386400	 7.349935	 67.955550	 5.691886	 2.384659	 28.388700	-0.000001	-11.511380	 7.665159	-8.662958	-4.447829	 7.504174	-14.534780	 16.709760	-2.716684	 28.203540	-91.776180	 78.527400	-180.000000	-83.497020	 13.112870	 1.897466	-0.492914	-1.795568	-50.418410	-1.771251	-21.211140	-2.468508	-4.130319	 21.525730	 0.991547	-5.167930	 0.731704	 3.519349	-1.378229	 35.397820	-2.634230	-3.165341	 1.216268	 2.227179	-10.294730	-30.360880	-13.761910	 89.782100	 78.203900	 180.000000	-43.307900	-7.690158	-15.873710	-12.977740	-9.628380	 54.168300	 27.122850	 4.345125	 141.308300	 5.716227	 19.173190	-3.685159	 5.027444	 0.246877	-9.377972	-2.350882	 35.473990	 5.254307
-0.463962	-0.033301	 1.273676	 179.772400	-2.349957	 6.173182	 23.083180	-8.590640	 170.815700	-9.855955	-25.398620	-4.508724	-6.780679	 78.370170	-2.190688	-2.385833	 28.452760	 0.000004	 13.556860	-2.130447	 175.768500	 3.538689	-15.215860	 0.529330	 9.328971	 69.914740	 3.501923	 2.384659	 28.388700	-0.000001	-12.152670	 7.367764	-8.756373	-4.770452	 7.887177	-14.502700	 16.805550	-2.883459	 28.338440	-91.776240	 78.527360	-180.000000	-80.122220	 15.525850	 9.732687	-1.079315	-2.111778	-67.002660	-1.908604	-21.416160	-2.555483	-4.130319	 21.525730	 0.991547	-5.167930	 0.731704	 3.519349	-1.378229	 35.397820	-2.634230	-3.147279	 1.173538	 2.310156	-10.271670	-30.181390	-13.994770	 89.782100	 78.203920	 180.000000	-37.765900	-7.032965	-18.672050	-9.827176	-10.865130	 70.918740	 23.648440	 4.635402	 126.490100	 5.716227	 19.173190	-3.685159	 5.027444	 0.246877	-9.377972	-2.350882	 35.473990	 5.254307
-0.464395	-0.033733	 1.271929	-179.976000	-1.984829	 6.123924	 22.125920	-10.385480	 171.045400	-10.220820	-29.497360	-5.356910	-12.820820	 80.865310	 3.903256	-2.385833	 28.452760	 0.000004	 12.729600	-4.822530	 176.786100	 3.693878	-20.456760	 0.759162	 13.074860	 72.501700	-0.622312	 2.384659	 28.388700	-0.000001	-13.259700	 6.901862	-8.850139	-5.343626	 8.481128	-14.449280	 16.916560	-3.101409	 28.499860	-91.776290	 78.527400	-179.999900	-73.145660	 21.723160	 19.062660	-1.935376	-2.159195	-89.038780	-2.214377	-21.622190	-2.702029	-4.130319	 21.525730	 0.991547	-5.167930	 0.731704	 3.519349	-1.378229	 35.397820	-2.634230	-3.115762	 1.041312	 2.287465	-10.217620	-29.897200	-14.044320	 89.782160	 78.203890	 179.999900	-27.830270	-1.821669	-17.630120	-5.577594	-10.727420	 92.852620	 17.037610	 8.712237	 102.162200	 5.716227	 19.173190	-3.685159	 5.027444	 0.246877	-9.377972	-2.350882	 35.473990	 5.254307
-0.464940	-0.034280	 1.269740	-179.670600	-1.573483	 6.014339	 21.359390	-12.246580	 171.336400	-10.907090	-33.840420	-6.445963	-22.971990	 83.316220	 14.249940	-2.385833	 28.452760	 0.000004	 11.996390	-7.395327	 178.076900	 3.944940	-25.429340	 1.040636	 17.997160	 74.750720	-6.010294	 2.384659	 28.388700	-0.000001	-14.580030	 6.404844	-8.862145	-6.014491	 9.077732	-14.405880	 16.966600	-3.249635	 28.609680	-91.776150	 78.527400	 180.000000	-60.886700	 32.723900	 22.064330	-2.512505	-1.829237	-106.641700	-2.655362	-21.682970	-2.873680	-4.130319	 21.525730	 0.991547	-5.167930	 0.731704	 3.519349	-1.378229	 35.397820	-2.634230	-3.076082	 0.796535	 2.041716	-10.132780	-29.568420	-13.644850	 89.782100	 78.203870	 180.000000	-19.437200	 13.375610	-8.519753	-3.149045	-9.138837	 108.126300	 8.620303	 17.412160	 74.642780	 5.716227	 19.173190	-3.685159	 5.027444	 0.246877	-9.377972	-2.350882	 35.473990	 5.254307
-0.465654	-0.035012	 1.266960	-179.277600	-1.112600	 5.856724	 20.342470	-14.118070	 171.718400	-11.721580	-38.507380	-7.719884	-48.644050	 85.558250	 40.080380	-2.385833	 28.452760	 0.000004	 11.285130	-9.954187	 179.706000	 4.257836	-30.352570	 1.382926	 25.297910	 76.671110	-13.873720	 2.384659	 28.388700	-0.000001	-16.248320	 5.786062	-8.833211	-6.825584	 9.770255	-14.215510	 16.929410	-3.231978	 28.518600	-91.776180	 78.527420	-180.000000	-34.419830	 48.180580	 5.660833	-2.616924	-1.452827	-114.390100	-3.200747	-21.761310	-3.083130	-4.130319	 21.525730	 0.991547	-5.167930	 0.731704	 3.519349	-1.378229	 35.397820	-2.634230	-3.029077	 0.368423	 1.475824	-9.924101	-28.945190	-12.448570	 89.782100	 78.203870	 180.000000	-26.721010	 36.615860	 16.483870	-3.312335	-8.357254	 108.792000	-4.067528	 23.854280	 49.064950	 5.716227	 19.173190	-3.685159	 5.027444	 0.246877	-9.377972	-2.350882	 35.473990	 5.254307
-0.466572	-0.035892	 1.264017	-178.758300	-0.716104	 5.635039	 19.012240	-15.605290	 172.195000	-12.494780	-42.714670	-8.939935	-94.517200	 85.863500	 86.028390	-2.385833	 28.452760	 0.000004	 10.519080	-12.099590	-178.518600	 4.618432	-34.575390	 1.757999	 33.728550	 77.894780	-22.888740	 2.384659	 28.388700	-0.000001	-18.162000	 5.159453	-8.660727	-7.590830	 10.355680	-13.870950	 16.695600	-2.838552	 28.080950	-91.776180	 78.527420	-180.000000	 3.566370	 55.732090	-34.379600	-2.269614	-1.177280	-105.052300	-3.831177	-21.852070	-3.321493	-4.130319	 21.525730	 0.991547	-5.167930	 0.731704	 3.519349	-1.378229	 35.397820	-2.634230	-2.981486	-0.333004	 0.416277	-9.554856	-27.878810	-10.006460	 89.782140	 78.203900	 179.999900	-50.961080	 44.648030	 57.695390	-6.294778	-8.712237	 89.142240	-16.362310	 20.184980	 39.325220	 5.716227	 19.173190	-3.685159	 5.027444	 0.246877	-9.377972	-2.350882	 35.473990	 5.254307
